<svg xmlns="http://www.w3.org/2000/svg" xmlns:xlink="http://www.w3.org/1999/xlink" width="196" zoomAndPan="magnify" viewBox="0 0 147 147.000002" height="196" preserveAspectRatio="xMidYMid meet" version="1.0"><defs><g/><clipPath id="7213e9e084"><path d="M 0.496094 0 L 146.503906 0 L 146.503906 146.007812 L 0.496094 146.007812 Z M 0.496094 0 " clip-rule="nonzero"/></clipPath></defs><g clip-path="url(#7213e9e084)"><path fill="#ffffff" d="M 0.496094 0 L 146.503906 0 L 146.503906 146.007812 L 0.496094 146.007812 Z M 0.496094 0 " fill-opacity="1" fill-rule="nonzero"/><path fill="#182532" d="M 0.496094 0 L 146.503906 0 L 146.503906 146.007812 L 0.496094 146.007812 Z M 0.496094 0 " fill-opacity="1" fill-rule="nonzero"/></g><g fill="#ffffff" fill-opacity="1"><g transform="translate(13.055716, 93.644219)"><g><path d="M 14.390625 0.28125 C 11.691406 0.28125 9.679688 -0.148438 8.359375 -1.015625 C 7.035156 -1.890625 6.203125 -3.023438 5.859375 -4.421875 C 5.515625 -5.816406 5.34375 -7.632812 5.34375 -9.875 L 5.40625 -51.40625 L 11.3125 -51.40625 L 11.3125 -10.765625 C 11.3125 -9.023438 11.390625 -7.734375 11.546875 -6.890625 C 11.703125 -6.046875 12.132812 -5.367188 12.84375 -4.859375 C 13.550781 -4.359375 14.679688 -4.109375 16.234375 -4.109375 C 17.203125 -4.109375 18.050781 -4.175781 18.78125 -4.3125 L 18.78125 -0.0625 C 17.539062 0.164062 16.078125 0.28125 14.390625 0.28125 Z M 14.390625 0.28125 "/></g></g></g><g fill="#ffffff" fill-opacity="1"><g transform="translate(34.571641, 93.644219)"><g><path d="M 36.59375 0 L 30.640625 0 L 30.640625 -6.859375 L 30.21875 -6.859375 C 29.257812 -4.753906 27.785156 -2.984375 25.796875 -1.546875 C 23.816406 -0.109375 21.382812 0.609375 18.5 0.609375 C 15.488281 0.609375 12.976562 -0.117188 10.96875 -1.578125 C 8.957031 -3.035156 7.484375 -4.929688 6.546875 -7.265625 C 5.609375 -9.597656 5.140625 -12.132812 5.140625 -14.875 L 5.140625 -36.109375 L 11.03125 -36.109375 L 11.03125 -15.625 C 11.03125 -12.101562 11.921875 -9.394531 13.703125 -7.5 C 15.484375 -5.601562 17.816406 -4.65625 20.703125 -4.65625 C 23.710938 -4.65625 26.117188 -5.671875 27.921875 -7.703125 C 29.734375 -9.742188 30.640625 -12.382812 30.640625 -15.625 L 30.640625 -36.109375 L 36.59375 -36.109375 Z M 36.59375 0 "/></g></g></g><g fill="#ffffff" fill-opacity="1"><g transform="translate(75.821921, 93.644219)"><g><path d="M 8.984375 -42.828125 C 7.878906 -42.828125 6.972656 -43.191406 6.265625 -43.921875 C 5.554688 -44.660156 5.203125 -45.578125 5.203125 -46.671875 C 5.203125 -47.765625 5.554688 -48.675781 6.265625 -49.40625 C 6.972656 -50.132812 7.878906 -50.5 8.984375 -50.5 C 10.078125 -50.5 11 -50.125 11.75 -49.375 C 12.507812 -48.625 12.890625 -47.722656 12.890625 -46.671875 C 12.890625 -45.617188 12.507812 -44.710938 11.75 -43.953125 C 11 -43.203125 10.078125 -42.828125 8.984375 -42.828125 Z M 2.125 15.015625 C 0.300781 15.015625 -1.296875 14.828125 -2.671875 14.453125 L -2.671875 10.21875 C -1.890625 10.394531 -0.816406 10.484375 0.546875 10.484375 C 2.191406 10.484375 3.398438 10.175781 4.171875 9.5625 C 4.953125 8.945312 5.429688 8.210938 5.609375 7.359375 C 5.796875 6.515625 5.890625 5.429688 5.890625 4.109375 L 5.890625 -36.59375 L 11.78125 -36.59375 L 11.859375 5.484375 C 11.859375 8.035156 11.21875 10.257812 9.9375 12.15625 C 8.65625 14.0625 6.050781 15.015625 2.125 15.015625 Z M 2.125 15.015625 "/></g></g></g><g fill="#ffffff" fill-opacity="1"><g transform="translate(93.158001, 93.644219)"><g><path d="M 20.421875 0.484375 C 16.765625 0.484375 13.664062 -0.394531 11.125 -2.15625 C 8.59375 -3.914062 6.6875 -6.222656 5.40625 -9.078125 C 4.132812 -11.929688 3.5 -15.003906 3.5 -18.296875 C 3.5 -21.585938 4.132812 -24.660156 5.40625 -27.515625 C 6.6875 -30.367188 8.59375 -32.675781 11.125 -34.4375 C 13.664062 -36.195312 16.765625 -37.078125 20.421875 -37.078125 C 24.078125 -37.078125 27.171875 -36.195312 29.703125 -34.4375 C 32.242188 -32.675781 34.140625 -30.351562 35.390625 -27.46875 C 36.648438 -24.59375 37.28125 -21.535156 37.28125 -18.296875 C 37.28125 -15.054688 36.640625 -11.992188 35.359375 -9.109375 C 34.078125 -6.234375 32.171875 -3.914062 29.640625 -2.15625 C 27.109375 -0.394531 24.035156 0.484375 20.421875 0.484375 Z M 20.421875 -4.59375 C 22.660156 -4.59375 24.613281 -5.207031 26.28125 -6.4375 C 27.945312 -7.675781 29.210938 -9.332031 30.078125 -11.40625 C 30.953125 -13.488281 31.390625 -15.804688 31.390625 -18.359375 C 31.390625 -22.296875 30.40625 -25.566406 28.4375 -28.171875 C 26.476562 -30.773438 23.804688 -32.078125 20.421875 -32.078125 C 18.140625 -32.078125 16.164062 -31.457031 14.5 -30.21875 C 12.832031 -28.988281 11.5625 -27.332031 10.6875 -25.25 C 9.820312 -23.175781 9.390625 -20.878906 9.390625 -18.359375 C 9.390625 -14.429688 10.367188 -11.15625 12.328125 -8.53125 C 14.296875 -5.90625 16.992188 -4.59375 20.421875 -4.59375 Z M 20.421875 -4.59375 "/></g></g></g></svg>