<svg xmlns="http://www.w3.org/2000/svg" xmlns:xlink="http://www.w3.org/1999/xlink" width="196" zoomAndPan="magnify" viewBox="0 0 147 147.000002" height="196" preserveAspectRatio="xMidYMid meet" version="1.0"><defs><g/><clipPath id="91183ef62a"><path d="M 0.496094 0 L 146.503906 0 L 146.503906 146.007812 L 0.496094 146.007812 Z M 0.496094 0 " clip-rule="nonzero"/></clipPath></defs><g clip-path="url(#91183ef62a)"><path fill="#ffffff" d="M 0.496094 0 L 146.503906 0 L 146.503906 146.007812 L 0.496094 146.007812 Z M 0.496094 0 " fill-opacity="1" fill-rule="nonzero"/><path fill="#182532" d="M 0.496094 0 L 146.503906 0 L 146.503906 146.007812 L 0.496094 146.007812 Z M 0.496094 0 " fill-opacity="1" fill-rule="nonzero"/></g><g fill="#ffffff" fill-opacity="1"><g transform="translate(11.586489, 96.468754)"><g><path d="M 15.828125 0.203125 C 12.222656 0.203125 9.5625 -0.34375 7.84375 -1.4375 C 6.132812 -2.53125 5.070312 -3.851562 4.65625 -5.40625 C 4.25 -6.96875 4.046875 -8.957031 4.046875 -11.375 L 4.109375 -51.40625 L 14.734375 -51.40625 L 14.734375 -13.5625 C 14.734375 -11.96875 14.8125 -10.769531 14.96875 -9.96875 C 15.132812 -9.164062 15.59375 -8.535156 16.34375 -8.078125 C 17.09375 -7.628906 18.289062 -7.40625 19.9375 -7.40625 C 20.8125 -7.40625 21.40625 -7.445312 21.71875 -7.53125 L 21.71875 -0.140625 C 19.664062 0.0859375 17.703125 0.203125 15.828125 0.203125 Z M 15.828125 0.203125 "/></g></g></g><g fill="#ffffff" fill-opacity="1"><g transform="translate(36.323063, 96.468754)"><g><path d="M 36.9375 0 L 26.171875 0 L 26.171875 -5.40625 L 25.703125 -5.40625 C 24.921875 -3.71875 23.6875 -2.28125 22 -1.09375 C 20.3125 0.09375 18.253906 0.6875 15.828125 0.6875 C 11.117188 0.6875 7.894531 -0.816406 6.15625 -3.828125 C 4.425781 -6.847656 3.5625 -10.207031 3.5625 -13.90625 L 3.5625 -36.25 L 14.1875 -36.25 L 14.1875 -15.6875 C 14.1875 -13.40625 14.664062 -11.566406 15.625 -10.171875 C 16.582031 -8.785156 18.066406 -8.09375 20.078125 -8.09375 C 22.179688 -8.09375 23.722656 -8.8125 24.703125 -10.25 C 25.679688 -11.6875 26.171875 -13.5 26.171875 -15.6875 L 26.171875 -36.25 L 36.9375 -36.25 Z M 36.9375 0 "/></g></g></g><g fill="#ffffff" fill-opacity="1"><g transform="translate(77.299358, 96.468754)"><g><path d="M 10.625 -42.28125 C 8.976562 -42.28125 7.601562 -42.835938 6.5 -43.953125 C 5.40625 -45.078125 4.859375 -46.441406 4.859375 -48.046875 C 4.859375 -49.679688 5.40625 -51.054688 6.5 -52.171875 C 7.601562 -53.296875 8.976562 -53.859375 10.625 -53.859375 C 12.269531 -53.859375 13.648438 -53.296875 14.765625 -52.171875 C 15.890625 -51.054688 16.453125 -49.679688 16.453125 -48.046875 C 16.453125 -46.441406 15.890625 -45.078125 14.765625 -43.953125 C 13.648438 -42.835938 12.269531 -42.28125 10.625 -42.28125 Z M 3.21875 15.6875 C 1.113281 15.6875 -1.007812 15.4375 -3.15625 14.9375 L -3.15625 7.53125 C -2.46875 7.71875 -1.484375 7.8125 -0.203125 7.8125 C 1.347656 7.8125 2.476562 7.535156 3.1875 6.984375 C 3.894531 6.441406 4.328125 5.757812 4.484375 4.9375 C 4.648438 4.113281 4.734375 3.039062 4.734375 1.71875 L 4.734375 -37.34375 L 15.421875 -37.34375 L 15.421875 4.9375 C 15.421875 7.445312 14.664062 9.863281 13.15625 12.1875 C 11.644531 14.519531 8.332031 15.6875 3.21875 15.6875 Z M 3.21875 15.6875 "/></g></g></g><g fill="#ffffff" fill-opacity="1"><g transform="translate(97.993125, 96.468754)"><g><path d="M 20.015625 0.609375 C 16.171875 0.609375 12.9375 -0.234375 10.3125 -1.921875 C 7.6875 -3.609375 5.734375 -5.867188 4.453125 -8.703125 C 3.171875 -11.535156 2.53125 -14.6875 2.53125 -18.15625 C 2.53125 -21.582031 3.171875 -24.722656 4.453125 -27.578125 C 5.734375 -30.429688 7.6875 -32.710938 10.3125 -34.421875 C 12.9375 -36.140625 16.171875 -37 20.015625 -37 C 23.847656 -37 27.078125 -36.15625 29.703125 -34.46875 C 32.335938 -32.78125 34.289062 -30.507812 35.5625 -27.65625 C 36.84375 -24.800781 37.484375 -21.660156 37.484375 -18.234375 C 37.484375 -14.804688 36.84375 -11.660156 35.5625 -8.796875 C 34.289062 -5.941406 32.335938 -3.660156 29.703125 -1.953125 C 27.078125 -0.242188 23.847656 0.609375 20.015625 0.609375 Z M 20.015625 -7.953125 C 22.390625 -7.953125 24.144531 -8.929688 25.28125 -10.890625 C 26.425781 -12.859375 27 -15.328125 27 -18.296875 C 27 -21.265625 26.425781 -23.695312 25.28125 -25.59375 C 24.144531 -27.488281 22.390625 -28.4375 20.015625 -28.4375 C 17.640625 -28.4375 15.878906 -27.476562 14.734375 -25.5625 C 13.585938 -23.644531 13.015625 -21.222656 13.015625 -18.296875 C 13.015625 -15.328125 13.597656 -12.859375 14.765625 -10.890625 C 15.929688 -8.929688 17.679688 -7.953125 20.015625 -7.953125 Z M 20.015625 -7.953125 "/></g></g></g></svg>